<svg xmlns="http://www.w3.org/2000/svg" version="1.1" xmlns:xlink="http://www.w3.org/1999/xlink" xmlns:svgjs="http://svgjs.dev/svgjs" width="1000" height="1000" viewBox="0 0 1000 1000"><rect width="1000" height="1000" fill="none"></rect><g transform="matrix(0.7,0,0,0.7,149.60547695289995,163.9223579029496)"><svg viewBox="0 0 257 247" data-background-color="#ffffff" preserveAspectRatio="xMidYMid meet" height="961" width="1000" xmlns="http://www.w3.org/2000/svg" xmlns:xlink="http://www.w3.org/1999/xlink"><g id="tight-bounds" transform="matrix(1,0,0,1,0.14484631872102227,-0.09999642927229502)"><svg viewBox="0 0 256.7102993284203 247.2" height="247.2" width="256.7102993284203"><g><svg viewBox="0 0 336.87814686 324.39788400251575" height="247.2" width="256.7102993284203"><g><svg viewBox="0 0 336.87814686 324.39788400251575" height="324.39788400251575" width="336.87814686"><g id="textblocktransform"><svg viewBox="0 0 336.87814686 324.39788400251575" height="324.39788400251575" width="336.87814686" id="textblock"><g><svg viewBox="0 0 336.87814686 245.672304" height="245.672304" width="336.87814686"><g transform="matrix(1,0,0,1,0,0)"><svg width="336.87814686" viewBox="-6.800000190734863 -36.849998474121094 54.849998474121094 40" height="245.672304" data-palette-color="#fd6706"><path d="M27.9-4.2L27.9-4.2Q27.9-2.25 25.25-1.6L25.25-1.6Q25.1-1.6 25.1-1.8 25.1-2 25.45-2.25L25.45-2.25Q26.45-3 26.45-3.9L26.45-3.9Q26.45-5.65 23.55-6.5L23.55-6.5Q18.7-2.1 13.4 0.53 8.1 3.15 3.45 3.15L3.45 3.15Q-0.1 3.15-0.1 0.68-0.1-1.8 3.1-3.93 6.3-6.05 10.75-7.15 15.2-8.25 18.45-8.25 21.7-8.25 23.3-7.9L23.3-7.9Q28.2-12.65 31.3-17.82 34.4-23 34.4-26.93 34.4-30.85 31.48-33 28.55-35.15 22.65-35.15 16.75-35.15 10.43-33.02 4.1-30.9-0.3-27.45-4.7-24-4.7-20.65L-4.7-20.65Q-4.7-18.75-2.35-18.75L-2.35-18.75Q1-18.75 4.25-20.43 7.5-22.1 12.75-26.5L12.75-26.5Q13.4-27.25 13.7-27.25L13.7-27.25Q14.2-27.25 14.2-26.9L14.2-26.9Q14.2-26.8 13.85-26.2L13.85-26.2Q12.55-24.9 10.2-23.05 7.85-21.2 5.85-19.95 3.85-18.7 1.33-17.7-1.2-16.7-3.25-16.7L-3.25-16.7Q-6.8-16.7-6.8-19.85L-6.8-19.85Q-6.8-23.4-1.73-27.45 3.35-31.5 10.65-34.18 17.95-36.85 24.2-36.85 30.45-36.85 33.45-34.5 36.45-32.15 36.45-27.95 36.45-23.75 33.18-18.15 29.9-12.55 24.7-7.55L24.7-7.55Q27.9-6.55 27.9-4.2ZM22.1-6.8L22.1-6.8Q20.45-7.05 17.78-7.05 15.1-7.05 11.4-6.2 7.7-5.35 5.03-3.55 2.35-1.75 2.35 0.5L2.35 0.5Q2.35 2.15 4.5 2.15L4.5 2.15Q8.3 2.15 12.98-0.3 17.65-2.75 22.1-6.8ZM21.85-32.5L22.1-32.3Q22.1-32.05 16.2-21.65 10.3-11.25 8.55-8.3L8.55-8.3Q8.25-7.65 7.45-7.3 6.65-6.95 6.23-6.95 5.8-6.95 5.8-7.18 5.8-7.4 9.3-13.4L9.3-13.4Q19.75-31.3 19.6-31.35L19.6-31.35Q19.9-31.85 20.6-32.1L20.6-32.1 21.85-32.5ZM41.1-2.3L41.1-2.3 45.2-4.7Q45.25-4.6 45.25-4.3 45.25-4 44.8-3.8L44.8-3.8Q38 0.75 35.1 0.75L35.1 0.75Q32.6 0.75 32.6-2.55L32.6-2.55Q32.6-3.9 33.05-5.03 33.5-6.15 34.5-6.15L34.5-6.15Q37.95-6.15 39.87-7.2 41.8-8.25 41.8-9.38 41.8-10.5 40.2-10.5L40.2-10.5Q36.6-10.5 31.05-4L31.05-4Q29.35-0.8 28.5 0.9L28.5 0.9Q28.25 1.35 27.8 1.35L27.8 1.35Q26.8 1.35 26.8 0.65L26.8 0.65Q26.8 0.35 27-0.05L27-0.05 31.45-7.85Q35.7-15.35 40.15-21.35 44.6-27.35 46.85-27.35L46.85-27.35Q47.6-27.35 47.9-26.65L47.9-26.65Q48.05-26.4 48.05-26.05L48.05-26.05Q48.05-24.25 44.95-20.4 41.85-16.55 39.15-13.9 36.45-11.25 33.65-8.75L33.65-8.75 32.25-6.25Q37.65-11.75 41.65-11.75L41.65-11.75Q43.95-11.75 43.95-10.25L43.95-10.25Q43.95-8.6 41.37-6.95 38.8-5.3 34.95-5.3L34.95-5.3Q34.4-4.5 34.4-3.5L34.4-3.5Q34.4-0.7 36.6-0.7L36.6-0.7Q38.2-0.7 40.95-2.2L40.95-2.2Q41.05-2.3 41.1-2.3ZM46.4-25.5L46.4-25.5Q46.4-26 46.15-26L46.15-26Q43.4-26 34.7-10.7L34.7-10.7Q39.1-14.75 42.75-18.98 46.4-23.2 46.4-25.5Z" opacity="1" transform="matrix(1,0,0,1,0,0)" fill="#ffffff" class="undefined-text-0" data-fill-palette-color="primary" id="text-0"></path></svg></g></svg></g><g transform="matrix(1,0,0,1,0,303.669638839104)"><svg viewBox="0 0 197.781160021506 20.72824516341179" height="20.72824516341179" width="197.781160021506"><g transform="matrix(1,0,0,1,0,0)"><svg width="197.781160021506" viewBox="4.199999809265137 -38.349998474121094 487.05999755859375 51.04999923706055" height="20.72824516341179" data-palette-color="#fd6706"><path d="M8.35-36.15L8.35-36.15 24.6-36.15Q30.1-36.15 30.1-33.35L30.1-33.35Q30.1-31.65 28.6-30.9L28.6-30.9Q27-32.05 23.8-32.05L23.8-32.05 10.85-32.05 10.85-20.75 20.35-20.75Q23.45-20.75 24.75-20.23 26.05-19.7 26.05-18.35 26.05-17 24.7-16.15L24.7-16.15Q23.3-16.8 19.9-16.8L19.9-16.8 10.85-16.8 10.85-3.7Q10.85-1.85 12.2-1.3L12.2-1.3Q10.9 0.45 9 0.45L9 0.45Q5.6 0.45 5.6-3.75L5.6-3.75 5.6-31.8Q5.6-33.6 4.2-34.2L4.2-34.2Q5.6-36.15 8.35-36.15ZM40.9-21.85L40.9-21.85 40.9-20.85Q42.9-26.1 47.75-26.1L47.75-26.1Q50.15-26.1 51.5-24.85 52.85-23.6 52.85-21.78 52.85-19.95 51.92-18.98 51-18 49.5-18L49.5-18Q49.45-18 48.25-18.15L48.25-18.15Q48.4-18.9 48.4-19.78 48.4-20.65 47.72-21.33 47.05-22 45.7-22 44.35-22 42.92-20.53 41.5-19.05 40.9-15.9L40.9-15.9 40.9-3.7Q40.9-1.9 42.3-1.3L42.3-1.3Q41 0.45 39.1 0.45L39.1 0.45Q35.7 0.45 35.7-3.75L35.7-3.75 35.7-21.9Q35.7-23.65 34.3-24.35L34.3-24.35Q35.6-26.1 37.5-26.1L37.5-26.1Q40.9-26.1 40.9-21.85ZM72.8-20.38Q70.7-23 67.57-23 64.45-23 62.8-20.7 61.15-18.4 61.15-14.1L61.15-14.1Q61.15-7.95 63.3-5.28 65.45-2.6 68.55-2.6 71.65-2.6 73.27-4.95 74.9-7.3 74.9-11.55L74.9-11.55Q74.9-17.75 72.8-20.38ZM55.85-12.83Q55.85-19.15 59.35-22.63 62.85-26.1 68.02-26.1 73.2-26.1 76.7-22.6 80.2-19.1 80.2-12.8 80.2-6.5 76.7-3.03 73.2 0.45 68.05 0.45 62.9 0.45 59.37-3.03 55.85-6.5 55.85-12.83ZM108.79-17.35L108.79-17.35 108.79-3.7Q108.79-1.9 110.19-1.3L110.19-1.3Q108.89 0.45 106.99 0.45L106.99 0.45Q103.59 0.45 103.59-3.75L103.59-3.75 103.59-16.85Q103.59-21.7 99.34-21.7L99.34-21.7Q97.09-21.7 95.07-19.8 93.04-17.9 92.24-14.65L92.24-14.65 92.24-3.7Q92.24-1.9 93.64-1.3L93.64-1.3Q92.34 0.45 90.44 0.45L90.44 0.45Q87.04 0.45 87.04-3.75L87.04-3.75 87.04-21.9Q87.04-23.65 85.64-24.35L85.64-24.35Q86.94-26.1 88.84-26.1L88.84-26.1Q92.24-26.1 92.24-21.85L92.24-21.85 92.24-20.2Q93.54-22.9 95.94-24.5 98.34-26.1 101.54-26.1 104.74-26.1 106.77-23.9 108.79-21.7 108.79-17.35ZM123.29-21.95L122.69-21.95 122.69-6.8Q122.69-5 123.37-4.23 124.04-3.45 125.59-3.45L125.59-3.45Q128.64-3.45 131.19-6L131.19-6Q132.29-5.8 132.29-4.2 132.29-2.6 130.02-1.07 127.74 0.45 124.42 0.45 121.09 0.45 119.27-1.28 117.44-3 117.44-6.4L117.44-6.4 117.44-21.95Q115.39-22 114.44-22.63 113.49-23.25 113.49-24.25 113.49-25.25 114.24-25.8L114.24-25.8Q115.64-25.6 116.89-25.6L116.89-25.6 117.44-25.6 117.44-28.9Q117.44-30.7 116.04-31.3L116.04-31.3Q117.24-33.05 119.19-33.05L119.19-33.05Q122.69-33.05 122.69-28.85L122.69-28.85 122.69-25.6 130.79-25.6Q131.09-25.15 131.09-24.7L131.09-24.7Q131.09-21.95 123.29-21.95L123.29-21.95ZM141.14-19.5L141.14-19.5 156.54-19.5Q156.74-19.15 156.74-18.4L156.74-18.4Q156.74-15.05 151.94-15.05L151.94-15.05 136.64-15.05Q136.34-15.55 136.34-16.25L136.34-16.25Q136.34-19.5 141.14-19.5ZM167.69-15L175.84-15.75Q177.79-15.9 177.79-18 177.79-20.1 176.66-21.48 175.54-22.85 173.49-22.85 171.44-22.85 169.76-20.8 168.09-18.75 167.69-15L167.69-15ZM167.54-12.35Q167.59-7.8 169.61-5.63 171.64-3.45 175.36-3.45 179.09-3.45 181.89-6.25L181.89-6.25Q182.74-5.8 182.74-4.7L182.74-4.7Q182.74-2.85 180.19-1.2 177.64 0.45 174.19 0.45L174.19 0.45Q168.79 0.45 165.49-2.78 162.19-6 162.19-11.95 162.19-17.9 165.79-22 169.39-26.1 174.34-26.1L174.34-26.1Q178.24-26.1 180.69-23.48 183.14-20.85 183.14-17.5L183.14-17.5Q183.14-15.05 181.86-13.9 180.59-12.75 177.64-12.7L177.64-12.7 167.54-12.35ZM210.98-17.35L210.98-17.35 210.98-3.7Q210.98-1.9 212.38-1.3L212.38-1.3Q211.08 0.45 209.18 0.45L209.18 0.45Q205.78 0.45 205.78-3.75L205.78-3.75 205.78-16.85Q205.78-21.7 201.53-21.7L201.53-21.7Q199.28-21.7 197.26-19.8 195.23-17.9 194.43-14.65L194.43-14.65 194.43-3.7Q194.43-1.9 195.83-1.3L195.83-1.3Q194.53 0.45 192.63 0.45L192.63 0.45Q189.23 0.45 189.23-3.75L189.23-3.75 189.23-21.9Q189.23-23.65 187.83-24.35L187.83-24.35Q189.13-26.1 191.03-26.1L191.03-26.1Q194.43-26.1 194.43-21.85L194.43-21.85 194.43-20.2Q195.73-22.9 198.13-24.5 200.53-26.1 203.73-26.1 206.93-26.1 208.96-23.9 210.98-21.7 210.98-17.35ZM234.78-7.65L234.78-20.75Q232.88-22.65 229.91-22.65 226.93-22.65 224.83-19.98 222.73-17.3 222.73-12.63 222.73-7.95 224.53-5.63 226.33-3.3 229.23-3.3L229.23-3.3Q233.53-3.3 234.78-7.65L234.78-7.65ZM240.03-34.15L240.03-34.15 240.03-3.7Q240.03-1.9 241.38-1.3L241.38-1.3Q240.08 0.45 238.18 0.45L238.18 0.45Q235.03 0.45 234.78-3.1L234.78-3.1Q232.53 0.45 228.06 0.45 223.58 0.45 220.41-2.93 217.23-6.3 217.23-12.28 217.23-18.25 220.71-22.18 224.18-26.1 229.38-26.1L229.38-26.1Q232.28-26.1 234.78-24.85L234.78-24.85 234.78-34.2Q234.78-35.95 233.38-36.65L233.38-36.65Q234.58-38.35 236.58-38.35L236.58-38.35Q240.03-38.35 240.03-34.15ZM273.83-36.55L273.83-36.55Q281.53-36.55 287.03-32.05L287.03-32.05Q289.73-29.85 291.28-26.23 292.83-22.6 292.83-18 292.83-13.4 291.28-9.8 289.73-6.2 287.03-4L287.03-4Q281.58 0.45 273.83 0.45L273.83 0.45Q267.63 0.45 265.23-1.25 262.83-2.95 262.83-6.55L262.83-6.55 262.88-30.95Q262.88-33.35 261.93-34.55L261.93-34.55Q267.58-36.55 273.83-36.55ZM273.83-3.3L273.83-3.3Q279.63-3.3 283.45-7.15 287.28-11 287.28-18 287.28-25 283.45-28.88 279.63-32.75 273.83-32.75L273.83-32.75Q270.98-32.75 268.23-31.9L268.23-31.9 268.13-6.4Q268.13-4.7 269.18-4 270.23-3.3 273.83-3.3ZM303.07-15L311.22-15.75Q313.17-15.9 313.17-18 313.17-20.1 312.05-21.48 310.92-22.85 308.87-22.85 306.82-22.85 305.15-20.8 303.47-18.75 303.07-15L303.07-15ZM302.92-12.35Q302.97-7.8 305-5.63 307.02-3.45 310.75-3.45 314.47-3.45 317.27-6.25L317.27-6.25Q318.12-5.8 318.12-4.7L318.12-4.7Q318.12-2.85 315.57-1.2 313.02 0.45 309.57 0.45L309.57 0.45Q304.17 0.45 300.87-2.78 297.57-6 297.57-11.95 297.57-17.9 301.17-22 304.77-26.1 309.72-26.1L309.72-26.1Q313.62-26.1 316.07-23.48 318.52-20.85 318.52-17.5L318.52-17.5Q318.52-15.05 317.25-13.9 315.97-12.75 313.02-12.7L313.02-12.7 302.92-12.35ZM333.72-3.1L340.07-20.7Q340.57-22 340.57-23.18 340.57-24.35 339.87-25.2L339.87-25.2Q341.17-26.1 342.57-26.1 343.97-26.1 344.8-25.3 345.62-24.5 345.62-23.33 345.62-22.15 344.97-20.4L344.97-20.4 338.37-3.85Q337.47-1.5 336.47-0.55 335.47 0.4 333.62 0.4 331.77 0.4 330.72-0.55 329.67-1.5 328.92-3.85L328.92-3.85 323.17-21.25Q322.47-23.25 321.07-23.6L321.07-23.6Q321.27-24.7 322.25-25.4 323.22-26.1 324.42-26.1L324.42-26.1Q327.47-26.1 328.47-22.3L328.47-22.3 333.72-3.1ZM354.72-15L362.87-15.75Q364.82-15.9 364.82-18 364.82-20.1 363.69-21.48 362.57-22.85 360.52-22.85 358.47-22.85 356.79-20.8 355.12-18.75 354.72-15L354.72-15ZM354.57-12.35Q354.62-7.8 356.64-5.63 358.67-3.45 362.39-3.45 366.12-3.45 368.92-6.25L368.92-6.25Q369.77-5.8 369.77-4.7L369.77-4.7Q369.77-2.85 367.22-1.2 364.67 0.45 361.22 0.45L361.22 0.45Q355.82 0.45 352.52-2.78 349.22-6 349.22-11.95 349.22-17.9 352.82-22 356.42-26.1 361.37-26.1L361.37-26.1Q365.27-26.1 367.72-23.48 370.17-20.85 370.17-17.5L370.17-17.5Q370.17-15.05 368.89-13.9 367.62-12.75 364.67-12.7L364.67-12.7 354.57-12.35ZM381.47-34.15L381.47-34.15 381.47-3.7Q381.47-1.9 382.87-1.3L382.87-1.3Q381.57 0.45 379.67 0.45L379.67 0.45Q376.27 0.45 376.27-3.75L376.27-3.75 376.27-34.2Q376.27-35.95 374.87-36.65L374.87-36.65Q376.07-38.35 378.07-38.35L378.07-38.35Q381.47-38.35 381.47-34.15ZM405.26-20.38Q403.16-23 400.04-23 396.91-23 395.26-20.7 393.61-18.4 393.61-14.1L393.61-14.1Q393.61-7.95 395.76-5.28 397.91-2.6 401.01-2.6 404.11-2.6 405.74-4.95 407.36-7.3 407.36-11.55L407.36-11.55Q407.36-17.75 405.26-20.38ZM388.31-12.83Q388.31-19.15 391.81-22.63 395.31-26.1 400.49-26.1 405.66-26.1 409.16-22.6 412.66-19.1 412.66-12.8 412.66-6.5 409.16-3.03 405.66 0.45 400.51 0.45 395.36 0.45 391.84-3.03 388.31-6.5 388.31-12.83ZM430.66-3.25L430.66-3.25Q433.41-3.25 435.36-5.85 437.31-8.45 437.31-12.8 437.31-17.15 435.39-19.63 433.46-22.1 430.66-22.1L430.66-22.1Q426.71-22.1 424.71-18.15L424.71-18.15 424.71-6.45Q426.86-3.25 430.66-3.25ZM419.51 8.45L419.51 8.45 419.51-21.9Q419.51-23.65 418.11-24.35L418.11-24.35Q419.41-26.1 421.31-26.1L421.31-26.1Q424.41-26.1 424.71-22.5L424.71-22.5Q427.36-26.1 431.86-26.1 436.36-26.1 439.51-22.63 442.66-19.15 442.66-12.85 442.66-6.55 439.21-3.05 435.76 0.45 431.16 0.45L431.16 0.45Q427.41 0.45 424.71-2.15L424.71-2.15 424.71 8.5Q424.71 10.3 426.11 10.9L426.11 10.9Q424.81 12.7 422.91 12.7L422.91 12.7Q419.51 12.7 419.51 8.45ZM452.56-15L460.71-15.75Q462.66-15.9 462.66-18 462.66-20.1 461.53-21.48 460.41-22.85 458.36-22.85 456.31-22.85 454.63-20.8 452.96-18.75 452.56-15L452.56-15ZM452.41-12.35Q452.46-7.8 454.48-5.63 456.51-3.45 460.23-3.45 463.96-3.45 466.76-6.25L466.76-6.25Q467.61-5.8 467.61-4.7L467.61-4.7Q467.61-2.85 465.06-1.2 462.51 0.45 459.06 0.45L459.06 0.45Q453.66 0.45 450.36-2.78 447.06-6 447.06-11.95 447.06-17.9 450.66-22 454.26-26.1 459.21-26.1L459.21-26.1Q463.11-26.1 465.56-23.48 468.01-20.85 468.01-17.5L468.01-17.5Q468.01-15.05 466.73-13.9 465.46-12.75 462.51-12.7L462.51-12.7 452.41-12.35ZM479.31-21.85L479.31-21.85 479.31-20.85Q481.31-26.1 486.16-26.1L486.16-26.1Q488.56-26.1 489.91-24.85 491.26-23.6 491.26-21.78 491.26-19.95 490.33-18.98 489.41-18 487.91-18L487.91-18Q487.86-18 486.66-18.15L486.66-18.15Q486.81-18.9 486.81-19.78 486.81-20.65 486.13-21.33 485.46-22 484.11-22 482.76-22 481.33-20.53 479.91-19.05 479.31-15.9L479.31-15.9 479.31-3.7Q479.31-1.9 480.71-1.3L480.71-1.3Q479.41 0.45 477.51 0.45L477.51 0.45Q474.11 0.45 474.11-3.75L474.11-3.75 474.11-21.9Q474.11-23.65 472.71-24.35L472.71-24.35Q474.01-26.1 475.91-26.1L475.91-26.1Q479.31-26.1 479.31-21.85Z" opacity="1" transform="matrix(1,0,0,1,0,0)" fill="#ffffff" class="undefined-text-1" data-fill-palette-color="secondary" id="text-1"></path></svg></g></svg></g></svg></g></svg></g><g></g></svg></g><defs></defs></svg><rect width="256.7102993284203" height="247.2" fill="none" stroke="none" visibility="hidden"></rect></g></svg></g></svg>